<svg xmlns="http://www.w3.org/2000/svg" xmlns:xlink="http://www.w3.org/1999/xlink" aria-hidden="true" role="img" width="64" height="64" viewBox="0 0 16 16" style="color: rgb(28, 32, 51);"><path fill="currentColor" d="M16 8a7.92 7.92 0 0 0-2.431-5.568A7.78 7.78 0 0 0 5.057.896c-.923.405-1.758.992-2.449 1.712S1.371 4.182 1.011 5.105a7.53 7.53 0 0 0 .115 5.742c.392.892.961 1.7 1.658 2.368S4.307 14.41 5.2 14.758a7.3 7.3 0 0 0 2.799.493a7.16 7.16 0 0 0 6.526-4.547a7 7 0 0 0 .415-1.622l.059.002a1 1 0 0 0 .996-1.083h.004zm-1.589 2.655c-.367.831-.898 1.584-1.55 2.206s-1.422 1.112-2.254 1.434a6.8 6.8 0 0 1-2.608.454a6.68 6.68 0 0 1-4.685-2.065a6.6 6.6 0 0 1-1.38-2.173a6.5 6.5 0 0 1 .116-4.976c.342-.77.836-1.468 1.441-2.044s1.321-1.029 2.092-1.326a6.27 6.27 0 0 1 4.784.116c.74.329 1.41.805 1.963 1.387s.988 1.27 1.272 2.011a6 6 0 0 1 .397 2.32h.004a1 1 0 0 0 .888 1.077a7 7 0 0 1-.481 1.578z"></path></svg>